<svg width="410" height="80" viewBox="0 0 410 80" fill="none" xmlns="http://www.w3.org/2000/svg">
<path d="M2.112 62C1.728 62 1.408 61.872 1.152 61.616C0.896 61.3173 0.768 60.9973 0.768 60.656C0.768 60.4427 0.789333 60.2507 0.832 60.08L16.064 18.928C16.192 18.4587 16.448 18.0533 16.832 17.712C17.216 17.3707 17.7493 17.2 18.432 17.2H26.624C27.3067 17.2 27.84 17.3707 28.224 17.712C28.608 18.0533 28.864 18.4587 28.992 18.928L44.224 60.08C44.2667 60.2507 44.288 60.4427 44.288 60.656C44.288 60.9973 44.16 61.3173 43.904 61.616C43.648 61.872 43.328 62 42.944 62H36.288C35.648 62 35.1787 61.8507 34.88 61.552C34.5813 61.2533 34.3893 60.976 34.304 60.72L31.552 53.552H13.504L10.752 60.72C10.6667 60.976 10.4747 61.2533 10.176 61.552C9.87733 61.8507 9.408 62 8.768 62H2.112ZM15.872 45.296H29.12L22.528 26.864L15.872 45.296ZM64.273 76.08C61.1157 76.08 58.4917 75.6533 56.401 74.8C54.3103 73.9893 52.6463 72.9867 51.409 71.792C50.2143 70.64 49.361 69.488 48.849 68.336C48.337 67.184 48.0597 66.288 48.017 65.648C47.9743 65.1787 48.1237 64.7947 48.465 64.496C48.8063 64.1973 49.1903 64.048 49.617 64.048H56.465C56.849 64.048 57.169 64.1333 57.425 64.304C57.7237 64.5173 57.9583 64.8587 58.129 65.328C58.3423 65.84 58.641 66.3733 59.025 66.928C59.409 67.5253 59.985 68.016 60.753 68.4C61.5637 68.784 62.6303 68.976 63.953 68.976C65.4463 68.976 66.6837 68.7627 67.665 68.336C68.6463 67.9093 69.3717 67.184 69.841 66.16C70.353 65.136 70.609 63.7493 70.609 62V57.712C69.585 58.8213 68.2837 59.7387 66.705 60.464C65.169 61.1893 63.2703 61.552 61.009 61.552C58.7903 61.552 56.8277 61.2107 55.121 60.528C53.457 59.8027 52.0703 58.8 50.961 57.52C49.8517 56.1973 48.9983 54.6187 48.401 52.784C47.8037 50.9493 47.4623 48.88 47.377 46.576C47.3343 45.424 47.3343 44.2933 47.377 43.184C47.4623 40.9653 47.8037 38.9387 48.401 37.104C48.9983 35.2693 49.8517 33.6907 50.961 32.368C52.0703 31.0027 53.457 29.9573 55.121 29.232C56.8277 28.464 58.7903 28.08 61.009 28.08C63.3557 28.08 65.361 28.528 67.025 29.424C68.689 30.32 70.0543 31.4293 71.121 32.752V30.32C71.121 29.8933 71.2703 29.5307 71.569 29.232C71.8677 28.8907 72.2303 28.72 72.657 28.72H78.929C79.3557 28.72 79.7183 28.8907 80.017 29.232C80.3583 29.5307 80.529 29.8933 80.529 30.32L80.593 61.104C80.593 64.304 79.9743 67.0133 78.737 69.232C77.4997 71.4507 75.665 73.136 73.233 74.288C70.8437 75.4827 67.857 76.08 64.273 76.08ZM63.953 54.064C65.489 54.064 66.7263 53.7227 67.665 53.04C68.6463 52.3147 69.3717 51.4187 69.841 50.352C70.3103 49.2427 70.5663 48.0907 70.609 46.896C70.6517 46.4267 70.673 45.7653 70.673 44.912C70.673 44.016 70.6517 43.3333 70.609 42.864C70.5663 41.6693 70.3103 40.5387 69.841 39.472C69.3717 38.3627 68.6463 37.4667 67.665 36.784C66.7263 36.1013 65.489 35.76 63.953 35.76C62.3317 35.76 61.0517 36.1227 60.113 36.848C59.1743 37.5307 58.4917 38.448 58.065 39.6C57.6383 40.752 57.3823 42.0107 57.297 43.376C57.2543 44.4 57.2543 45.4027 57.297 46.384C57.3823 47.792 57.6383 49.072 58.065 50.224C58.4917 51.376 59.1743 52.3147 60.113 53.04C61.0517 53.7227 62.3317 54.064 63.953 54.064ZM103.505 62.64C98.5983 62.64 94.6943 61.2747 91.793 58.544C88.9343 55.8133 87.4197 51.8453 87.249 46.64C87.249 46.2987 87.249 45.8507 87.249 45.296C87.249 44.6987 87.249 44.2293 87.249 43.888C87.4197 40.6027 88.1663 37.7867 89.489 35.44C90.8117 33.0507 92.6677 31.2373 95.057 30C97.4463 28.72 100.241 28.08 103.441 28.08C107.025 28.08 110.012 28.8267 112.401 30.32C114.833 31.7707 116.646 33.776 117.841 36.336C119.078 38.8533 119.697 41.7547 119.697 45.04V46.512C119.697 46.9387 119.526 47.3013 119.185 47.6C118.886 47.8987 118.524 48.048 118.097 48.048H97.169C97.169 48.0907 97.169 48.176 97.169 48.304C97.169 48.3893 97.169 48.4747 97.169 48.56C97.2117 49.9253 97.4677 51.184 97.937 52.336C98.449 53.4453 99.153 54.3413 100.049 55.024C100.988 55.7067 102.097 56.048 103.377 56.048C104.444 56.048 105.318 55.8987 106.001 55.6C106.684 55.3013 107.238 54.9387 107.665 54.512C108.134 54.0853 108.476 53.7227 108.689 53.424C109.073 52.9973 109.372 52.7413 109.585 52.656C109.841 52.528 110.225 52.464 110.737 52.464H117.393C117.82 52.464 118.161 52.592 118.417 52.848C118.716 53.0613 118.844 53.3813 118.801 53.808C118.758 54.4907 118.396 55.344 117.713 56.368C117.073 57.3493 116.113 58.3307 114.833 59.312C113.553 60.2507 111.953 61.04 110.033 61.68C108.156 62.32 105.98 62.64 103.505 62.64ZM97.169 42.224H109.713V42.096C109.713 40.56 109.457 39.2373 108.945 38.128C108.476 36.976 107.772 36.08 106.833 35.44C105.894 34.8 104.764 34.48 103.441 34.48C102.118 34.48 100.988 34.8 100.049 35.44C99.1103 36.08 98.385 36.976 97.873 38.128C97.4037 39.2373 97.169 40.56 97.169 42.096V42.224ZM127.631 62C127.204 62 126.841 61.8507 126.543 61.552C126.244 61.2533 126.095 60.8693 126.095 60.4V30.32C126.095 29.8507 126.244 29.4667 126.543 29.168C126.841 28.8693 127.204 28.72 127.631 28.72H133.903C134.372 28.72 134.756 28.8693 135.055 29.168C135.353 29.4667 135.503 29.8507 135.503 30.32V32.816C136.612 31.4507 138.041 30.32 139.791 29.424C141.54 28.528 143.673 28.08 146.191 28.08C148.708 28.08 150.905 28.656 152.783 29.808C154.703 30.9173 156.196 32.56 157.263 34.736C158.372 36.8693 158.927 39.472 158.927 42.544V60.4C158.927 60.8693 158.756 61.2533 158.415 61.552C158.116 61.8507 157.753 62 157.326 62H150.543C150.073 62 149.689 61.8507 149.391 61.552C149.092 61.2533 148.943 60.8693 148.943 60.4V42.928C148.943 40.6667 148.388 38.9173 147.279 37.68C146.212 36.4 144.633 35.76 142.543 35.76C140.537 35.76 138.937 36.4 137.743 37.68C136.548 38.9173 135.951 40.6667 135.951 42.928V60.4C135.951 60.8693 135.801 61.2533 135.503 61.552C135.204 61.8507 134.841 62 134.415 62H127.631ZM178.947 62.64C176.813 62.64 174.915 62.2987 173.251 61.616C171.587 60.8907 170.179 59.8667 169.027 58.544C167.875 57.1787 167 55.5787 166.403 53.744C165.805 51.8667 165.443 49.7973 165.315 47.536C165.272 46.7253 165.251 46 165.251 45.36C165.251 44.6773 165.272 43.952 165.315 43.184C165.4 40.9653 165.741 38.9387 166.339 37.104C166.979 35.2693 167.853 33.6907 168.963 32.368C170.115 31.0027 171.523 29.9573 173.187 29.232C174.893 28.464 176.813 28.08 178.947 28.08C181.165 28.08 183.064 28.464 184.643 29.232C186.221 29.9573 187.523 30.9173 188.547 32.112V18.16C188.547 17.6907 188.696 17.3067 188.995 17.008C189.293 16.7093 189.677 16.56 190.147 16.56H196.739C197.165 16.56 197.528 16.7093 197.826 17.008C198.125 17.3067 198.275 17.6907 198.275 18.16V60.4C198.275 60.8693 198.125 61.2533 197.826 61.552C197.528 61.8507 197.165 62 196.739 62H190.595C190.168 62 189.805 61.8507 189.507 61.552C189.208 61.2533 189.059 60.8693 189.059 60.4V58.224C187.992 59.504 186.648 60.5707 185.027 61.424C183.405 62.2347 181.379 62.64 178.947 62.64ZM181.891 54.96C183.469 54.96 184.728 54.5973 185.667 53.872C186.648 53.1467 187.352 52.2293 187.779 51.12C188.248 50.0107 188.504 48.816 188.547 47.536C188.632 46.7253 188.675 45.9147 188.675 45.104C188.675 44.2933 188.632 43.504 188.547 42.736C188.504 41.5413 188.248 40.432 187.779 39.408C187.309 38.3413 186.584 37.4667 185.603 36.784C184.664 36.1013 183.427 35.76 181.891 35.76C180.269 35.76 178.989 36.1227 178.051 36.848C177.112 37.5307 176.429 38.448 176.003 39.6C175.619 40.752 175.384 42.0107 175.299 43.376C175.171 44.6987 175.171 46.0213 175.299 47.344C175.384 48.7093 175.619 49.968 176.003 51.12C176.429 52.272 177.112 53.2107 178.051 53.936C178.989 54.6187 180.269 54.96 181.891 54.96ZM216.199 62.64C213.938 62.64 211.911 62.2133 210.119 61.36C208.327 60.464 206.898 59.2693 205.831 57.776C204.764 56.2827 204.231 54.6187 204.231 52.784C204.231 49.7547 205.447 47.3653 207.879 45.616C210.354 43.8667 213.596 42.672 217.607 42.032L225.991 40.816V39.664C225.991 38 225.607 36.72 224.839 35.824C224.071 34.928 222.727 34.48 220.807 34.48C219.399 34.48 218.268 34.7573 217.415 35.312C216.562 35.8667 215.9 36.592 215.431 37.488C215.09 38.0427 214.599 38.32 213.959 38.32H207.879C207.41 38.32 207.047 38.192 206.791 37.936C206.535 37.6373 206.428 37.296 206.471 36.912C206.471 36.1867 206.748 35.3333 207.303 34.352C207.858 33.3707 208.711 32.4107 209.863 31.472C211.015 30.4907 212.487 29.68 214.279 29.04C216.071 28.4 218.268 28.08 220.871 28.08C223.559 28.08 225.863 28.4 227.783 29.04C229.703 29.68 231.239 30.576 232.391 31.728C233.543 32.88 234.396 34.224 234.951 35.76C235.506 37.2533 235.783 38.8747 235.783 40.624V60.4C235.783 60.8693 235.634 61.2533 235.335 61.552C235.036 61.8507 234.652 62 234.183 62H227.911C227.484 62 227.122 61.8507 226.823 61.552C226.524 61.2533 226.375 60.8693 226.375 60.4V58.032C225.82 58.8427 225.074 59.6107 224.135 60.336C223.196 61.0187 222.066 61.5733 220.743 62C219.463 62.4267 217.948 62.64 216.199 62.64ZM218.759 55.984C220.167 55.984 221.426 55.6853 222.535 55.088C223.644 54.4907 224.519 53.5733 225.159 52.336C225.799 51.0987 226.119 49.5413 226.119 47.664V46.576L220.167 47.536C217.863 47.92 216.178 48.496 215.111 49.264C214.044 50.032 213.511 50.9707 213.511 52.08C213.511 52.8907 213.746 53.5947 214.215 54.192C214.727 54.7893 215.388 55.2373 216.199 55.536C217.01 55.8347 217.863 55.984 218.759 55.984Z" fill="#57636A"/>
<rect x="248" width="162" height="80" rx="8" fill="#57636A"/>
<path d="M270.08 62C269.611 62 269.227 61.8507 268.928 61.552C268.629 61.2533 268.48 60.8693 268.48 60.4V18.8C268.48 18.3307 268.629 17.9467 268.928 17.648C269.227 17.3493 269.611 17.2 270.08 17.2H278.336C278.805 17.2 279.189 17.3493 279.488 17.648C279.787 17.9467 279.936 18.3307 279.936 18.8V34.224H295.744V18.8C295.744 18.3307 295.893 17.9467 296.192 17.648C296.491 17.3493 296.875 17.2 297.344 17.2H305.6C306.069 17.2 306.453 17.3493 306.752 17.648C307.051 17.9467 307.2 18.3307 307.2 18.8V60.4C307.2 60.8693 307.051 61.2533 306.752 61.552C306.453 61.8507 306.069 62 305.6 62H297.344C296.875 62 296.491 61.8507 296.192 61.552C295.893 61.2533 295.744 60.8693 295.744 60.4V44.464H279.936V60.4C279.936 60.8693 279.787 61.2533 279.488 61.552C279.189 61.8507 278.805 62 278.336 62H270.08ZM327.688 62.64C325.256 62.64 323.08 62.0853 321.16 60.976C319.282 59.8667 317.81 58.2453 316.744 56.112C315.677 53.936 315.144 51.2907 315.144 48.176V30.32C315.144 29.8507 315.293 29.4667 315.592 29.168C315.89 28.8693 316.274 28.72 316.744 28.72H324.744C325.213 28.72 325.597 28.8693 325.896 29.168C326.194 29.4667 326.344 29.8507 326.344 30.32V47.792C326.344 51.9733 328.221 54.064 331.976 54.064C333.725 54.064 335.112 53.5307 336.136 52.464C337.202 51.3547 337.736 49.7973 337.736 47.792V30.32C337.736 29.8507 337.885 29.4667 338.184 29.168C338.482 28.8693 338.866 28.72 339.336 28.72H347.336C347.805 28.72 348.189 28.8693 348.488 29.168C348.786 29.4667 348.936 29.8507 348.936 30.32V60.4C348.936 60.8693 348.786 61.2533 348.488 61.552C348.189 61.8507 347.805 62 347.336 62H339.912C339.485 62 339.101 61.8507 338.76 61.552C338.461 61.2533 338.312 60.8693 338.312 60.4V57.968C337.202 59.504 335.752 60.6773 333.96 61.488C332.21 62.256 330.12 62.64 327.688 62.64ZM376.816 62.64C374.426 62.64 372.421 62.2347 370.8 61.424C369.221 60.6133 367.92 59.5893 366.896 58.352V60.4C366.896 60.8693 366.725 61.2533 366.384 61.552C366.085 61.8507 365.722 62 365.296 62H358.064C357.594 62 357.21 61.8507 356.911 61.552C356.613 61.2533 356.464 60.8693 356.464 60.4V18.16C356.464 17.6907 356.613 17.3067 356.911 17.008C357.21 16.7093 357.594 16.56 358.064 16.56H365.872C366.341 16.56 366.725 16.7093 367.024 17.008C367.322 17.3067 367.472 17.6907 367.472 18.16V31.856C368.496 30.7467 369.776 29.8507 371.312 29.168C372.89 28.4427 374.725 28.08 376.816 28.08C378.949 28.08 380.826 28.4427 382.448 29.168C384.112 29.8507 385.52 30.8533 386.672 32.176C387.824 33.4987 388.72 35.0773 389.36 36.912C390 38.7467 390.362 40.816 390.448 43.12C390.49 43.9307 390.512 44.6773 390.512 45.36C390.512 46 390.49 46.7467 390.448 47.6C390.362 49.9893 389.978 52.1227 389.296 54C388.656 55.8347 387.76 57.4133 386.608 58.736C385.456 60.016 384.069 60.9973 382.448 61.68C380.826 62.32 378.949 62.64 376.816 62.64ZM373.36 54.064C374.81 54.064 375.941 53.7653 376.752 53.168C377.562 52.5707 378.138 51.76 378.48 50.736C378.864 49.712 379.098 48.5813 379.184 47.344C379.269 46.0213 379.269 44.6987 379.184 43.376C379.098 42.1387 378.864 41.008 378.48 39.984C378.138 38.96 377.562 38.1493 376.752 37.552C375.941 36.9547 374.81 36.656 373.36 36.656C372.037 36.656 370.949 36.9547 370.096 37.552C369.242 38.1067 368.602 38.8533 368.176 39.792C367.749 40.688 367.514 41.6693 367.472 42.736C367.429 43.5467 367.408 44.336 367.408 45.104C367.408 45.872 367.429 46.6827 367.472 47.536C367.514 48.688 367.728 49.7547 368.112 50.736C368.496 51.7173 369.114 52.528 369.968 53.168C370.821 53.7653 371.952 54.064 373.36 54.064Z" fill="#E4EAEB"/>
</svg>
